<?xml version="1.0" encoding="UTF-8"?>
<!DOCTYPE svg PUBLIC "-//W3C//DTD SVG 1.1//EN" "http://www.w3.org/Graphics/SVG/1.1/DTD/svg11.dtd">
<svg xmlns="http://www.w3.org/2000/svg" version="1.1" width="512px" height="512px" style="shape-rendering:geometricPrecision; text-rendering:geometricPrecision; image-rendering:optimizeQuality; fill-rule:evenodd; clip-rule:evenodd" xmlns:xlink="http://www.w3.org/1999/xlink">
<g><path style="opacity:0.948" fill="#fefffe" d="M 61.5,-0.5 C 65.8333,-0.5 70.1667,-0.5 74.5,-0.5C 89.6402,6.39521 94.1402,17.7285 88,33.5C 85.2521,38.0813 81.4187,41.4146 76.5,43.5C 75.513,46.7683 75.1796,50.1016 75.5,53.5C 99.169,53.3334 122.836,53.5 146.5,54C 147.667,55.1667 148.833,56.3333 150,57.5C 150.333,82.5 150.667,107.5 151,132.5C 183.035,117.16 215.035,101.826 247,86.5C 247.667,72.1667 247.667,57.8333 247,43.5C 234.491,37.1411 230.158,27.1411 234,13.5C 237.214,7.14527 242.048,2.4786 248.5,-0.5C 253.167,-0.5 257.833,-0.5 262.5,-0.5C 277.798,7.12072 281.964,18.7874 275,34.5C 272.148,38.4352 268.481,41.4352 264,43.5C 263.333,57.8333 263.333,72.1667 264,86.5C 274.091,91.4617 284.257,96.295 294.5,101C 300.701,108.309 299.201,113.475 290,116.5C 278.44,111.303 266.94,105.97 255.5,100.5C 212.469,121.016 169.469,141.516 126.5,162C 139.559,168.612 152.725,175.112 166,181.5C 198.188,143.327 238.688,130.161 287.5,142C 310.476,149.646 329.643,162.813 345,181.5C 358.275,175.112 371.441,168.612 384.5,162C 360.884,150.467 337.218,139.133 313.5,128C 310.353,124.691 309.687,120.858 311.5,116.5C 314.278,113.693 317.611,112.86 321.5,114C 334.41,120.038 347.243,126.205 360,132.5C 360.018,106.746 360.685,81.0796 362,55.5C 362.75,54.8742 363.584,54.3742 364.5,54C 388.164,53.5 411.831,53.3334 435.5,53.5C 435.82,50.1016 435.487,46.7683 434.5,43.5C 420.04,35.2768 416.54,23.6101 424,8.5C 427.299,4.1179 431.466,1.1179 436.5,-0.5C 440.833,-0.5 445.167,-0.5 449.5,-0.5C 464.64,6.39521 469.14,17.7285 463,33.5C 460.252,38.0813 456.419,41.4146 451.5,43.5C 450.669,50.4764 450.169,57.4764 450,64.5C 449.626,65.4162 449.126,66.2496 448.5,67C 424.59,68.4801 400.59,68.9801 376.5,68.5C 376.5,80.8333 376.5,93.1667 376.5,105.5C 406.835,105.667 437.168,105.5 467.5,105C 473.848,92.4974 483.848,88.1641 497.5,92C 504.593,95.0488 509.26,100.215 511.5,107.5C 511.5,111.833 511.5,116.167 511.5,120.5C 504.011,135.802 492.345,139.969 476.5,133C 472.692,130.233 469.692,126.733 467.5,122.5C 437.174,121.5 406.841,121.167 376.5,121.5C 376.334,127.842 376.5,134.175 377,140.5C 387.091,145.462 397.257,150.295 407.5,155C 408.667,156.167 409.833,157.333 411,158.5C 411.5,188.165 411.667,217.831 411.5,247.5C 430.179,247.833 448.845,247.5 467.5,246.5C 477.511,231 490.178,228.5 505.5,239C 507.921,242.351 509.921,245.851 511.5,249.5C 511.5,253.833 511.5,258.167 511.5,262.5C 503.966,277.81 492.299,281.977 476.5,275C 472.968,271.967 469.968,268.467 467.5,264.5C 448.845,263.5 430.179,263.167 411.5,263.5C 411.667,293.169 411.5,322.835 411,352.5C 409.833,353.667 408.667,354.833 407.5,356C 397.378,360.561 387.378,365.394 377.5,370.5C 376.504,376.798 376.17,383.132 376.5,389.5C 406.835,389.667 437.168,389.5 467.5,389C 475.329,374.87 486.662,371.204 501.5,378C 506.237,381.555 509.57,386.055 511.5,391.5C 511.5,395.833 511.5,400.167 511.5,404.5C 503.97,419.81 492.304,423.976 476.5,417C 472.555,414.112 469.555,410.445 467.5,406C 437.168,405.5 406.835,405.333 376.5,405.5C 376.5,417.833 376.5,430.167 376.5,442.5C 400.59,442.02 424.59,442.52 448.5,444C 449.126,444.75 449.626,445.584 450,446.5C 450.169,453.524 450.669,460.524 451.5,467.5C 465.96,475.723 469.46,487.39 462,502.5C 458.701,506.882 454.534,509.882 449.5,511.5C 445.167,511.5 440.833,511.5 436.5,511.5C 420.554,503.837 416.387,491.837 424,475.5C 426.79,471.874 430.29,469.208 434.5,467.5C 435.487,464.232 435.82,460.898 435.5,457.5C 411.077,457.98 386.743,457.48 362.5,456C 361.874,455.25 361.374,454.416 361,453.5C 360.667,428.5 360.333,403.5 360,378.5C 351.904,382.715 343.571,386.381 335,389.5C 330.456,388.956 327.956,386.456 327.5,382C 327.408,379.186 328.408,376.853 330.5,375C 352.288,364.356 374.121,353.856 396,343.5C 396.667,287.167 396.667,230.833 396,174.5C 381.879,181.478 367.712,188.311 353.5,195C 375.265,237.456 373.099,278.622 347,318.5C 326.354,345.914 298.854,361.581 264.5,365.5C 263.334,379.154 263.167,392.821 264,406.5C 277.424,399.872 290.924,393.372 304.5,387C 311.293,384.823 315.293,387.156 316.5,394C 316.592,396.814 315.592,399.147 313.5,401C 297.045,408.978 280.545,416.811 264,424.5C 263.333,438.833 263.333,453.167 264,467.5C 276.503,473.848 280.836,483.848 277,497.5C 273.786,503.855 268.952,508.521 262.5,511.5C 257.833,511.5 253.167,511.5 248.5,511.5C 231.94,502.606 228.44,489.939 238,473.5C 240.728,471.108 243.728,469.108 247,467.5C 247.667,453.167 247.667,438.833 247,424.5C 215.035,409.174 183.035,393.84 151,378.5C 150.667,403.5 150.333,428.5 150,453.5C 148.833,454.667 147.667,455.833 146.5,457C 122.836,457.5 99.169,457.667 75.5,457.5C 75.1796,460.898 75.513,464.232 76.5,467.5C 90.9602,475.723 94.4602,487.39 87,502.5C 83.7009,506.882 79.5343,509.882 74.5,511.5C 70.1667,511.5 65.8333,511.5 61.5,511.5C 45.5541,503.837 41.3874,491.837 49,475.5C 51.7895,471.874 55.2895,469.208 59.5,467.5C 60.3311,460.524 60.8311,453.524 61,446.5C 61.3742,445.584 61.8742,444.75 62.5,444C 86.4099,442.52 110.41,442.02 134.5,442.5C 134.5,430.167 134.5,417.833 134.5,405.5C 104.165,405.333 73.8315,405.5 43.5,406C 35.7155,420.121 24.3822,423.787 9.5,417C 5.19555,413.538 1.86222,409.371 -0.5,404.5C -0.5,399.833 -0.5,395.167 -0.5,390.5C 7.52878,374.654 19.5288,370.82 35.5,379C 38.8961,381.732 41.5628,385.065 43.5,389C 73.8315,389.5 104.165,389.667 134.5,389.5C 134.83,383.132 134.496,376.798 133.5,370.5C 123.289,365.228 112.956,360.228 102.5,355.5C 101.667,354.5 100.833,353.5 100,352.5C 99.5,322.835 99.3334,293.169 99.5,263.5C 80.8304,263.333 62.1637,263.5 43.5,264C 35.6711,278.13 24.3378,281.796 9.5,275C 5.19555,271.538 1.86222,267.371 -0.5,262.5C -0.5,257.833 -0.5,253.167 -0.5,248.5C 7.52878,232.654 19.5288,228.82 35.5,237C 38.8961,239.732 41.5628,243.065 43.5,247C 62.1637,247.5 80.8304,247.667 99.5,247.5C 99.3335,238.161 99.5002,228.827 100,219.5C 104.667,214.167 109.333,214.167 114,219.5C 114.333,260.833 114.667,302.167 115,343.5C 158.848,364.757 202.848,385.757 247,406.5C 247.833,392.821 247.666,379.154 246.5,365.5C 201.831,359.662 169.997,336.329 151,295.5C 137.967,260.983 140.134,227.483 157.5,195C 143.288,188.311 129.121,181.478 115,174.5C 114.667,181.5 114.333,188.5 114,195.5C 109.333,200.833 104.667,200.833 100,195.5C 99.3333,183.167 99.3333,170.833 100,158.5C 101.167,157.333 102.333,156.167 103.5,155C 113.743,150.295 123.909,145.462 134,140.5C 134.5,134.175 134.666,127.842 134.5,121.5C 104.165,121.333 73.8315,121.5 43.5,122C 35.6751,136.129 24.3418,139.795 9.5,133C 5.19555,129.538 1.86222,125.371 -0.5,120.5C -0.5,115.833 -0.5,111.167 -0.5,106.5C 7.56989,90.6454 19.5699,86.812 35.5,95C 38.8961,97.7316 41.5628,101.065 43.5,105C 73.8315,105.5 104.165,105.667 134.5,105.5C 134.5,93.1667 134.5,80.8333 134.5,68.5C 110.41,68.9801 86.4099,68.4801 62.5,67C 61.8742,66.2496 61.3742,65.4162 61,64.5C 60.8311,57.4764 60.3311,50.4764 59.5,43.5C 45.0398,35.2768 41.5398,23.6101 49,8.5C 52.2991,4.1179 56.4657,1.1179 61.5,-0.5 Z M 64.5,15.5 C 70.3077,14.1545 73.9743,16.3211 75.5,22C 72.5516,29.1357 68.0516,30.3024 62,25.5C 60.4152,21.722 61.2485,18.3887 64.5,15.5 Z M 251.5,15.5 C 257.651,13.8436 261.317,16.0102 262.5,22C 261.306,28.1491 257.639,30.1491 251.5,28C 247.565,23.8372 247.565,19.6705 251.5,15.5 Z M 439.5,15.5 C 445.308,14.1545 448.974,16.3211 450.5,22C 447.552,29.1357 443.052,30.3024 437,25.5C 435.415,21.722 436.248,18.3887 439.5,15.5 Z M 19.5,106.5 C 26.8798,106.043 29.7131,109.376 28,116.5C 25.3689,120.629 21.8689,121.462 17.5,119C 13.6102,114.154 14.2768,109.987 19.5,106.5 Z M 486.5,106.5 C 493.88,106.043 496.713,109.376 495,116.5C 492.369,120.629 488.869,121.462 484.5,119C 480.61,114.154 481.277,109.987 486.5,106.5 Z M 245.5,153.5 C 296.158,152.231 330.325,175.231 348,222.5C 359.657,270.548 345.157,308.381 304.5,336C 266.074,356.181 229.407,353.514 194.5,328C 162.377,299.026 151.877,263.526 163,221.5C 177.502,182.86 205.002,160.193 245.5,153.5 Z M 250.5,188.5 C 263.898,187.271 272.731,192.938 277,205.5C 277.499,211.157 277.666,216.824 277.5,222.5C 262.833,222.5 248.167,222.5 233.5,222.5C 230.261,206.308 235.928,194.975 250.5,188.5 Z M 214.5,238.5 C 241.835,238.333 269.169,238.5 296.5,239C 297.66,259.76 297.826,280.594 297,301.5C 269.572,302.661 242.072,302.828 214.5,302C 213.172,280.833 213.172,259.667 214.5,238.5 Z M 19.5,248.5 C 26.7707,248.036 29.604,251.369 28,258.5C 25.3689,262.629 21.8689,263.462 17.5,261C 13.6102,256.154 14.2768,251.987 19.5,248.5 Z M 486.5,248.5 C 493.771,248.036 496.604,251.369 495,258.5C 493.179,261.991 490.346,263.157 486.5,262C 482.788,259.487 481.622,255.987 483,251.5C 484.145,250.364 485.312,249.364 486.5,248.5 Z M 251.5,256.5 C 257.651,254.844 261.317,257.01 262.5,263C 261.306,269.149 257.639,271.149 251.5,269C 247.565,264.837 247.565,260.67 251.5,256.5 Z M 19.5,390.5 C 27.379,390.216 30.2123,393.883 28,401.5C 21.3528,406.372 16.8528,404.872 14.5,397C 15.2686,394.074 16.9353,391.907 19.5,390.5 Z M 486.5,390.5 C 494.379,390.216 497.212,393.883 495,401.5C 488.353,406.372 483.853,404.872 481.5,397C 482.269,394.074 483.935,391.907 486.5,390.5 Z M 64.5,482.5 C 70.3077,481.154 73.9743,483.321 75.5,489C 72.5516,496.136 68.0516,497.302 62,492.5C 60.4152,488.722 61.2485,485.389 64.5,482.5 Z M 251.5,482.5 C 257.651,480.844 261.317,483.01 262.5,489C 261.306,495.149 257.639,497.149 251.5,495C 247.565,490.837 247.565,486.67 251.5,482.5 Z M 439.5,482.5 C 445.308,481.154 448.974,483.321 450.5,489C 447.552,496.136 443.052,497.302 437,492.5C 435.415,488.722 436.248,485.389 439.5,482.5 Z"/></g>
<g><path style="opacity:0.941" fill="#fefffe" d="M 250.5,172.5 C 281.883,174.231 296.217,190.897 293.5,222.5C 303.178,222.671 309.678,227.338 313,236.5C 313.97,260.23 313.636,283.897 312,307.5C 309.031,312.473 304.864,315.973 299.5,318C 270.167,318.667 240.833,318.667 211.5,318C 206.136,315.973 201.969,312.473 199,307.5C 197.364,283.897 197.03,260.23 198,236.5C 201.322,227.338 207.822,222.671 217.5,222.5C 214.596,196.238 225.596,179.571 250.5,172.5 Z M 250.5,188.5 C 235.928,194.975 230.261,206.308 233.5,222.5C 248.167,222.5 262.833,222.5 277.5,222.5C 277.666,216.824 277.499,211.157 277,205.5C 272.731,192.938 263.898,187.271 250.5,188.5 Z M 214.5,238.5 C 213.172,259.667 213.172,280.833 214.5,302C 242.072,302.828 269.572,302.661 297,301.5C 297.826,280.594 297.66,259.76 296.5,239C 269.169,238.5 241.835,238.333 214.5,238.5 Z M 251.5,256.5 C 247.565,260.67 247.565,264.837 251.5,269C 257.639,271.149 261.306,269.149 262.5,263C 261.317,257.01 257.651,254.844 251.5,256.5 Z"/></g>
<g><path style="opacity:0.942" fill="#fefffe" d="M 249.5,240.5 C 264.148,238.564 273.648,244.564 278,258.5C 279.641,270.552 274.974,279.218 264,284.5C 263.667,288.5 263.333,292.5 263,296.5C 258,301.833 253,301.833 248,296.5C 247.667,292.5 247.333,288.5 247,284.5C 232.854,276.586 229.187,265.253 236,250.5C 239.579,245.731 244.079,242.397 249.5,240.5 Z M 251.5,256.5 C 247.565,260.67 247.565,264.837 251.5,269C 257.639,271.149 261.306,269.149 262.5,263C 261.317,257.01 257.651,254.844 251.5,256.5 Z"/></g>
</svg>
